<?xml version="1.0" encoding="utf-8"?>
<!-- Generator: Adobe Illustrator 24.1.3, SVG Export Plug-In . SVG Version: 6.00 Build 0)  -->
<svg version="1.1" id="Layer_1" xmlns="http://www.w3.org/2000/svg" xmlns:xlink="http://www.w3.org/1999/xlink" x="0px" y="0px"
	 viewBox="0 0 1062 121" style="enable-background:new 0 0 1062 121;" xml:space="preserve">
<style type="text/css">
	.st0{fill:#FFFFFF;}
</style>
<g id="_x23_ffffffff">
</g>
<g id="_x23_1467b3ff">
	<path class="st0" d="M650.2,6.2c12.7-1.1,26.2,2.1,36,10.7c12.1,10.6,17.7,27.2,17.2,43c0.3,13.4-2.9,27.4-11.2,38.2
		c-7.3,9.9-19.2,16-31.3,17.3c-13.5,1.8-28.3-1.3-38.5-10.8c-11.9-10.6-17.1-27-16.9-42.6c-0.3-15.5,4.7-31.7,15.9-42.8
		C629,11.6,639.5,7.2,650.2,6.2 M649.5,25.6c-5.8,1.3-10.6,5.3-13.7,10.2c-4.7,7.5-6.2,16.5-6.4,25.2c0.2,9,1.8,18.3,6.8,25.9
		c3.9,5.9,10.5,10.3,17.8,10c7.3,0.5,14.3-3.7,18.2-9.7c6.4-9.7,7.4-21.9,6.4-33.3c-1-8.7-4-17.8-10.7-23.8
		C663,25.5,655.9,24.2,649.5,25.6z"/>
	<path class="st0" d="M833.1,6.2c12.7-1.1,26.2,2.1,35.9,10.6c12.2,10.6,17.7,27.3,17.3,43.1c0.3,13.4-3,27.4-11.2,38.2
		c-7.3,9.9-19.1,16-31.3,17.3c-13.5,1.8-28.3-1.3-38.5-10.8c-11.9-10.6-17.1-27-16.9-42.6c-0.3-15.5,4.7-31.7,15.9-42.8
		C812,11.7,822.4,7.2,833.1,6.2 M832.5,25.6c-5.8,1.3-10.5,5.3-13.6,10.3c-4.7,7.5-6.2,16.5-6.4,25.2c0.2,9,1.8,18.3,6.8,25.9
		c3.9,5.9,10.5,10.3,17.7,10c7.6,0.5,14.8-3.9,18.7-10.3c6.2-10,7-22.3,5.9-33.7c-1.2-8.6-4.3-17.5-11.1-23.3
		C845.5,25.4,838.6,24.3,832.5,25.6z"/>
	<path class="st0" d="M1016,7.1c12.4-2.3,25.5-1,37.1,4.2c-1.7,6.4-3.6,12.8-5.1,19.2c-8.1-3.7-17.1-6-26-4.6
		c-4.6,0.7-9.8,3.9-10.1,9c-0.6,3.5,1.3,7,4.2,9c8.1,5.5,18,7.5,26.2,12.8c5.4,3.5,10.3,8.3,12.7,14.4c4.4,11.4,2.1,25.5-6.8,34
		c-7.4,7.3-18.1,10.1-28.2,10.7c-11.2,0.5-22.7-1.4-32.9-6.4c1.5-6.6,3.1-13.2,4.7-19.8c8,4.3,17.1,6.6,26.2,6.8
		c4.7-0.3,10.1-1.2,13.4-5c3.3-4,3.1-10.5-0.7-14.1c-6.1-5.9-14.8-7.2-22-11c-8.3-4.1-16.2-10.6-19-19.7c-2.6-8.9-1.2-19.1,4.5-26.6
		C999.3,13,1007.6,8.7,1016,7.1z"/>
	<path class="st0" d="M4.7,6.8c34.9,0.1,69.7,0,104.6,0c0,10.5-0.1,21.1,0.1,31.6c-10,0-20,0-30,0c0,25.5,0,50.9,0,76.4
		c-14.5,0-29,0-43.5,0C36,95.3,35.7,75.6,35.9,56c-0.6-5.9,0.7-11.8-0.3-17.6c-10.3,0.3-20.7,0-31,0.1C4.7,28,4.7,17.4,4.7,6.8z"/>
	<path class="st0" d="M139.4,7.2c14.5-0.7,29.1-0.1,43.7-0.3c1.3-0.2,2.1,0.4,2.5,1.6c13.9,35.5,27.6,71.1,41.6,106.6
		c-14.1-0.2-28.2-0.1-42.3,0c-7.6-21.3-14.8-42.8-22.4-64.1c-7.7,21.2-14.7,42.6-22,64c-14,0.2-28,0-41.9,0.1
		C112.2,79,125.9,43.1,139.4,7.2z"/>
	<path class="st0" d="M217.1,6.8c29.6,0,59.2,0,88.8,0c5.2,0,10.4-0.2,15.6,0.2c-0.1,10.5-0.1,21,0,31.5c-10-0.1-20,0-30.1,0
		c0.1,25.5,0,50.9,0.1,76.4c-14.5,0-29-0.1-43.5,0c0.1-25.5,0-50.9,0.1-76.4c-10.3,0-20.7,0-31,0C217.1,28,217.1,17.4,217.1,6.8z"/>
	<path class="st0" d="M351.7,7.2c7-0.9,14.2,0,21.3-0.4c8.2,0.2,16.4-0.4,24.6,0.3c13.8,36,27.8,71.8,41.9,107.7
		c-14.2,0-28.3,0-42.5,0c-6.8-20.1-13.9-40.1-20.8-60.1c-0.4-1.2-0.7-2.6-2.1-2.9c-6.9,21.1-14.4,42-21.4,63c-14,0.2-28,0-42,0.1
		C324.5,79.1,338.2,43.2,351.7,7.2z"/>
	<path class="st0" d="M902.1,9.2c11.2-1.7,22.6-2.4,33.9-2.2c10,0.3,20.9,1.5,29,7.9c12.5,9.4,13.8,30,3,41.2
		c-3,3.3-6.8,5.9-10.9,7.5c5.5,2.7,9.6,7.7,11.7,13.5c4.3,12.1,5.8,25,10.3,36.9c-8-0.3-16,0.1-23.9-0.2c-3-8.5-5-17.2-7-26
		c-1.2-4.8-2.6-10.2-6.8-13.3c-4.8-3.4-11-2.4-16.5-2.6c0,14,0,28,0,42c-7.6,0-15.3,0-22.9,0C902.1,79.1,902,44.1,902.1,9.2
		 M924.9,25.6c0.1,9.7-0.1,19.4,0.1,29.1c6.9-0.3,14.4,0.9,20.7-2.9c8.5-4.8,9.1-19,0.7-24.1C939.9,23.8,932,25,924.9,25.6z"/>
	<path class="st0" d="M486.1,8c10.3,0.1,20.6,0,30.9,0.1c6.6,24.3,14.3,48.4,18.6,73.3c1-1.2,1.2-2.7,1.5-4.1
		c5.1-23.4,12.5-46.2,19.5-69.1c10.1,0,20.3,0,30.4,0c1.5,35.3,3.7,70.6,5.3,105.9c-7.5,0-15,0-22.4,0c-0.6-22-2-44-2.3-66
		c0.1-6.1-0.2-12.1-0.3-18.2c-7.3,27.8-16,55.1-24.2,82.6c-6,0-12,0-18.1,0c-6-23.7-13.1-47.2-17.9-71.3c-0.9-3.8-1.2-7.8-2.5-11.5
		c-0.6,28.2-2.3,56.3-3.5,84.4c-7.1,0-14.3,0-21.4,0C481.8,78.6,484.2,43.3,486.1,8z"/>
	<path class="st0" d="M706.4,8.1c26,0,52.1,0,78.2,0c0,6.7-0.1,13.3,0,20c-9.2,0.2-18.5,0-27.7,0.1c0,28.6,0,57.2,0,85.8
		c-7.7-0.1-15.4,0-23.1,0c0-28.6,0-57.2,0-85.8c-9.1,0-18.3,0-27.4,0C706.4,21.5,706.5,14.8,706.4,8.1z"/>
</g>
</svg>
